# xmcd
#
# Track frame offsets: 
#        150
#        21935
#        36677
#        55462
#        73397
#        88737
#        99867
#        117597
#        136312
#        151592
#
# Disc length: 2343 seconds
#
# Revision: 0
# Processed by: cddbd v1.5.2PL0 Copyright (c) Steve Scherf et al.
# Submitted via: ExactAudioCopy v0.99pb4
#
DISCID=8d09250a
DTITLE=Various Artist - Van alle markten thuis
DYEAR=1997
DGENRE=Blues
TTITLE0=Hoodooclub - Beercans and Spoons
TTITLE1=Hoodooclub - Way Down South
TTITLE2=Wizards of Ooze - Dusty Pieces
TTITLE3=Wizards of Ooze - Hifi
TTITLE4=Sweater - Love Birds
TTITLE5=Sweater - Cherry Flavored Pie
TTITLE6=Sunny Side Up - Keep On Singin'
TTITLE7=Sunny Side Up - Memories
TTITLE8=El Fish - Copydog
TTITLE9=El Fish - Looking for you
EXTD=
EXTT0=
EXTT1=
EXTT2=
EXTT3=
EXTT4=
EXTT5=
EXTT6=
EXTT7=
EXTT8=
EXTT9=
PLAYORDER=
